<?xml version="1.0" standalone="no"?>
<!DOCTYPE svg PUBLIC "-//W3C//DTD SVG 20010904//EN"
 "http://www.w3.org/TR/2001/REC-SVG-20010904/DTD/svg10.dtd">
<svg version="1.0" xmlns="http://www.w3.org/2000/svg"
 width="260.000000pt" height="260.000000pt" viewBox="0 0 260.000000 260.000000"
 preserveAspectRatio="xMidYMid meet">
<metadata>
Created by potrace 1.14, written by Peter Selinger 2001-2017
</metadata>
<g transform="translate(0.000000,260.000000) scale(0.100000,-0.100000)"
fill="#000000" stroke="none">
<path d="M1170 1940 c-56 -9 -81 -28 -133 -104 l-18 -26 -509 0 c-493 0 -510
-1 -510 -19 0 -15 9 -20 43 -24 61 -8 780 -2 795 6 20 13 162 -4 162 -19 0
-15 -35 -28 -50 -19 -5 3 -137 -1 -293 -10 -184 -11 -329 -14 -419 -10 -75 4
-159 4 -187 0 -45 -6 -51 -10 -51 -31 0 -24 1 -24 103 -25 191 -3 207 -4 209
-14 2 -5 -13 -18 -32 -27 -29 -15 -52 -17 -130 -13 -52 3 -107 8 -123 10 -27
4 -27 4 -27 -51 l0 -56 98 3 c53 1 135 -1 182 -5 54 -5 177 -2 335 8 138 9
274 18 303 19 28 2 52 1 52 -3 0 -4 17 -19 38 -33 43 -31 73 -71 44 -60 -15 6
-15 5 -3 -11 31 -38 68 -48 127 -35 35 8 50 15 42 21 -9 5 -6 8 10 8 24 0 48
40 30 51 -25 16 64 109 104 109 15 0 16 -4 6 -27 -6 -16 -20 -35 -30 -45 -21
-19 -23 -51 -5 -70 18 -19 15 -58 -7 -94 -18 -28 -27 -32 -75 -37 -49 -5 -60
-11 -89 -44 -18 -21 -35 -50 -39 -66 -3 -15 -10 -30 -16 -34 -6 -3 -7 -1 -3 5
3 6 1 14 -7 19 -7 4 -18 20 -24 36 -15 32 -33 36 -33 6 0 -18 -3 -19 -14 -9
-8 6 -12 18 -9 26 3 8 -1 14 -11 14 -9 0 -16 -4 -16 -10 0 -5 -8 -10 -18 -10
-11 0 -24 -12 -31 -26 -7 -17 -17 -24 -26 -20 -19 7 -19 -3 0 -124 8 -52 15
-115 15 -140 0 -55 3 -59 62 -90 31 -16 53 -36 65 -60 10 -19 22 -38 27 -41 4
-4 2 -9 -5 -12 -9 -4 -6 -8 10 -13 23 -7 24 -8 5 -15 -17 -7 -17 -8 4 -8 13
-1 20 -5 17 -11 -3 -6 4 -10 17 -10 41 0 51 -14 30 -40 l-18 -23 -70 23 c-100
33 -164 61 -159 70 3 5 -25 18 -62 31 -38 12 -84 29 -103 37 -30 12 -32 16
-16 21 14 6 0 15 -58 41 -42 18 -79 31 -82 28 -2 -3 9 -11 26 -18 16 -7 28
-16 25 -20 -7 -11 20 -61 28 -53 11 10 8 -16 -3 -38 -14 -24 7 -27 25 -2 19
26 38 6 30 -33 -4 -26 -3 -34 9 -34 8 0 24 -9 34 -20 10 -11 27 -18 39 -16 12
3 23 -1 26 -7 5 -14 77 -14 116 -2 23 8 24 7 18 -35 -7 -51 -53 -102 -108
-119 -26 -8 -12 -9 65 -5 80 5 98 4 94 -7 -6 -19 -65 -28 -183 -28 -90 0 -125
4 -191 24 -19 6 -22 2 -28 -37 -4 -27 -1 -62 8 -93 8 -27 20 -86 26 -130 5
-44 16 -102 24 -130 l13 -50 497 -3 497 -2 -7 37 c-3 21 -12 65 -20 97 -13 58
-12 60 12 89 33 39 50 74 58 118 6 33 4 36 -31 51 -40 17 -143 34 -143 24 0
-3 15 -13 33 -21 31 -15 13 -15 -28 0 -11 4 -15 3 -9 -2 6 -4 13 -15 16 -24 5
-13 2 -16 -12 -12 -10 3 -20 13 -23 24 -3 10 -12 19 -21 19 -25 0 -69 42 -54
52 9 5 8 8 -5 8 -10 0 -16 4 -13 9 3 5 44 15 91 22 47 7 85 15 85 19 0 4 9 10
20 13 11 3 20 0 20 -6 0 -6 3 -7 6 -4 8 8 -15 67 -26 67 -5 0 -21 20 -37 45
-15 25 -31 45 -35 45 -3 0 -4 9 -1 20 4 16 9 18 25 9 15 -8 19 -8 14 0 -4 6
-2 11 3 11 6 0 11 -13 11 -29 0 -37 38 -64 76 -55 25 6 26 5 15 -17 -10 -20
-7 -19 13 6 23 26 28 28 46 17 26 -16 30 -15 30 3 0 8 -4 15 -8 15 -13 0 -11
39 4 76 11 26 19 34 31 29 15 -5 15 -3 -1 14 -22 24 -18 48 13 83 21 25 50 30
35 7 -3 -5 -10 -6 -16 -3 -7 4 -8 2 -4 -4 12 -20 34 -13 38 10 2 13 11 24 22
26 12 3 16 0 11 -8 -5 -8 0 -8 16 2 l24 13 -32 3 c-29 3 -31 5 -23 27 5 12 6
26 2 30 -4 4 4 4 18 0 25 -8 25 -8 6 14 -19 21 -19 21 15 22 22 1 26 3 12 6
-14 3 -24 14 -28 34 -9 41 -1 46 27 16 41 -44 54 -75 40 -98 -7 -11 -8 -19 -2
-19 16 0 22 43 11 73 -6 16 -25 46 -43 68 -26 32 -30 43 -21 57 14 23 47 18
87 -13 43 -33 56 -32 56 5 0 26 4 30 27 30 38 0 25 8 -22 13 -22 3 -49 8 -59
13 -19 7 -19 8 0 16 17 7 16 8 -3 4 -13 -2 -23 0 -23 5 0 5 -13 9 -29 9 -17 0
-33 5 -36 10 -4 6 -12 7 -18 4 -7 -4 -9 -4 -5 1 4 4 3 14 -3 22 -9 10 -7 13
10 13 11 0 21 5 21 10 0 6 -7 10 -15 10 -8 0 -15 9 -15 20 0 15 7 20 26 20 14
0 22 4 19 10 -4 6 1 7 12 3 17 -5 17 -4 2 11 -9 9 -25 18 -37 19 -12 1 -22 7
-22 14 0 7 -6 13 -13 13 -21 0 -45 33 -40 55 7 32 2 72 -11 94 -3 5 1 14 9 21
8 7 15 18 15 25 0 20 65 25 205 15 72 -5 219 -6 328 -3 l197 6 0 113 0 113
-272 -4 c-150 -3 -416 -7 -591 -10 l-318 -5 -9 28 c-17 48 -25 57 -71 79 -57
27 -100 33 -169 23z m123 -71 c15 -27 15 -31 1 -25 -8 3 -33 6 -55 6 -46 0
-50 13 -11 34 38 21 45 20 65 -15z m347 -93 c0 -8 -16 -16 -41 -20 -30 -5 -39
-10 -35 -21 4 -12 -7 -15 -66 -15 -61 0 -69 2 -58 15 10 13 9 15 -8 15 -23 0
-36 15 -27 30 4 6 55 10 121 10 90 0 114 -3 114 -14z m326 -16 c8 0 11 -6 8
-15 -7 -17 -70 -20 -94 -5 -12 8 -11 10 7 10 12 0 25 5 28 11 4 6 14 8 22 5 8
-3 21 -6 29 -6z m294 -24 c0 -11 -19 -15 -25 -6 -3 5 1 10 9 10 9 0 16 -2 16
-4z m-63 -12 c-3 -3 -12 -4 -19 -1 -8 3 -5 6 6 6 11 1 17 -2 13 -5z m-2137
-168 c0 -2 -7 -6 -15 -10 -8 -3 -15 -1 -15 4 0 6 7 10 15 10 8 0 15 -2 15 -4z
m57 -2 c-3 -3 -12 -4 -19 -1 -8 3 -5 6 6 6 11 1 17 -2 13 -5z m115 -10 c-23
-16 -52 -13 -52 6 0 5 17 10 37 10 37 0 37 0 15 -16z m1608 -77 c0 -20 0 -20
-15 -1 -20 27 -20 51 0 34 8 -7 15 -22 15 -33z m-384 -64 c-3 -3 -13 -3 -22 1
-13 5 -14 9 -3 22 11 14 13 14 22 -1 5 -9 6 -19 3 -22z m481 -69 c-3 -3 -12
-4 -19 -1 -8 3 -5 6 6 6 11 1 17 -2 13 -5z m-350 -137 c6 -4 13 -16 16 -27 5
-18 0 -20 -50 -20 -80 0 -123 30 -71 49 24 9 90 7 105 -2z m439 -32 c18 -15
17 -16 -16 -9 -44 8 -63 24 -29 24 14 0 34 -7 45 -15z m-96 -15 c0 -5 -4 -10
-10 -10 -5 0 -10 5 -10 10 0 6 5 10 10 10 6 0 10 -4 10 -10z m130 -30 c0 -11
-2 -20 -3 -20 -2 0 -12 9 -22 20 -18 19 -17 20 3 20 15 0 22 -6 22 -20z m-963
-82 c-3 -8 -6 -5 -6 6 -1 11 2 17 5 13 3 -3 4 -12 1 -19z m-396 -236 c-7 -2
-18 1 -23 6 -8 8 -4 9 13 5 13 -4 18 -8 10 -11z m736 -94 c-28 -7 -42 -7 -50
1 -8 8 2 11 39 10 l49 -1 -38 -10z m73 2 c0 -5 -2 -10 -4 -10 -3 0 -8 5 -11
10 -3 6 -1 10 4 10 6 0 11 -4 11 -10z m5 -39 c-6 -6 -33 -6 -65 -2 l-55 9 65
1 c39 1 60 -3 55 -8z m20 -41 c5 -7 -17 -10 -65 -8 -93 3 -102 18 -11 18 38 0
73 -5 76 -10z m24 -65 c17 -17 31 -33 31 -37 0 -4 -24 -8 -52 -10 -43 -2 -56
1 -69 17 -16 18 -16 20 0 32 13 10 9 12 -29 13 -25 0 -50 4 -57 8 -6 4 24 7
67 7 74 0 81 -2 109 -30z"/>
<path d="M1888 1583 c7 -3 16 -2 19 1 4 3 -2 6 -13 5 -11 0 -14 -3 -6 -6z"/>
<path d="M2011 1304 c13 -14 37 -33 52 -41 23 -12 28 -19 23 -39 -7 -27 11
-34 21 -8 5 13 7 13 14 2 6 -9 9 -9 9 -1 0 6 -5 15 -10 18 -6 4 -8 15 -5 26 5
15 1 19 -20 19 -14 0 -24 4 -21 9 4 5 -2 7 -12 5 -9 -3 -27 4 -39 15 -32 30
-41 26 -12 -5z"/>
<path d="M393 1200 c-28 -3 -55 -9 -60 -14 -4 -4 -1 -7 7 -6 26 4 41 0 36 -8
-3 -5 -18 -7 -35 -4 -22 3 -28 8 -24 20 4 10 2 13 -5 8 -35 -21 0 -46 66 -46
31 0 42 -12 22 -25 -5 -3 -7 -12 -3 -20 3 -8 0 -15 -7 -15 -25 0 2 -18 36 -23
20 -3 46 -17 59 -32 28 -29 70 -34 72 -7 0 9 4 54 8 98 l8 81 -64 -1 c-35 0
-87 -3 -116 -6z m127 -150 c25 -21 12 -27 -21 -9 -11 5 -17 14 -14 20 8 12 8
12 35 -11z"/>
<path d="M2068 1050 c2 -16 6 -30 8 -30 2 0 4 14 4 30 0 17 -4 30 -8 30 -5 0
-7 -13 -4 -30z"/>
<path d="M832 1007 c-13 -42 -9 -77 9 -77 5 0 9 27 9 60 0 33 -1 60 -3 60 -1
0 -8 -19 -15 -43z"/>
<path d="M1686 527 c3 -10 9 -15 12 -12 3 3 0 11 -7 18 -10 9 -11 8 -5 -6z"/>
<path d="M1628 483 c6 -2 18 -2 25 0 6 3 1 5 -13 5 -14 0 -19 -2 -12 -5z"/>
<path d="M1478 463 c7 -3 16 -2 19 1 4 3 -2 6 -13 5 -11 0 -14 -3 -6 -6z"/>
</g>
</svg>
